<?xml version="1.0" standalone="no"?>
<!DOCTYPE svg PUBLIC "-//W3C//DTD SVG 20010904//EN"
 "http://www.w3.org/TR/2001/REC-SVG-20010904/DTD/svg10.dtd">
<svg version="1.0" xmlns="http://www.w3.org/2000/svg"
 width="880.000000pt" height="880.000000pt" viewBox="0 0 880.000000 880.000000"
 preserveAspectRatio="xMidYMid meet">

<g transform="translate(0.000000,880.000000) scale(0.100000,-0.100000)"
fill="#000000" stroke="none">
<path d="M4311 8381 c-62 -22 -94 -44 -134 -93 -30 -38 -106 -227 -799 -1998
-94 -239 -171 -436 -172 -437 0 0 -345 -22 -766 -47 -421 -26 -909 -55 -1085
-66 -176 -11 -367 -23 -425 -26 -246 -14 -317 -22 -362 -42 -145 -64 -207
-243 -133 -387 29 -57 69 -91 1025 -878 547 -450 996 -825 998 -832 2 -8 -54
-234 -123 -502 -70 -268 -144 -553 -165 -633 -102 -394 -160 -617 -252 -970
-88 -340 -100 -392 -95 -446 13 -176 183 -297 352 -252 36 10 352 207 1125
699 591 377 1081 689 1088 693 8 5 53 -17 120 -60 107 -67 751 -478 1612
-1028 482 -307 511 -322 605 -311 140 17 242 121 252 260 5 62 1 79 -322 1315
-231 888 -308 1189 -309 1216 -1 35 -117 -64 1254 1063 777 639 736 604 767
664 83 164 -9 366 -185 406 -26 6 -202 20 -392 31 -322 19 -707 42 -1500 90
-179 11 -406 25 -505 31 -99 6 -184 14 -188 18 -7 7 -106 258 -577 1456 -370
945 -368 940 -410 988 -72 82 -197 115 -299 78z m348 -1709 c511 -1303 487
-1244 533 -1291 75 -73 103 -81 336 -97 259 -17 920 -57 1407 -84 204 -12 383
-24 399 -28 28 -7 20 -14 -190 -187 -930 -763 -1294 -1063 -1327 -1094 -57
-54 -87 -122 -87 -199 0 -62 32 -193 330 -1332 131 -502 171 -662 167 -666 -4
-4 -197 118 -1198 757 -257 163 -486 308 -510 320 -61 32 -176 32 -236 1 -24
-12 -416 -261 -873 -552 -457 -292 -833 -530 -836 -530 -9 0 -9 -1 96 400 50
195 112 432 136 525 24 94 69 265 98 380 30 116 80 306 110 424 33 127 56 235
56 266 0 61 -21 126 -54 170 -13 17 -374 319 -801 671 -728 598 -775 639 -748
646 15 3 192 16 393 27 697 40 1376 81 1498 90 141 11 192 30 253 94 42 43 28
8 530 1289 140 356 256 648 259 648 3 0 119 -292 259 -648z"/>
</g>
</svg>
